<svg width="28" height="32" viewBox="0 0 28 32" fill="none" xmlns="http://www.w3.org/2000/svg">
<path d="M27.4099 8.23942C27.3935 7.37546 27.3778 6.55929 27.3778 5.76971C27.3778 5.15113 26.8764 4.64963 26.2577 4.64963C21.4675 4.64963 17.8203 3.27297 14.7803 0.317151C14.3454 -0.105792 13.6533 -0.105642 13.2186 0.317151C10.1788 3.27297 6.5323 4.64963 1.74238 4.64963C1.1238 4.64963 0.622298 5.15113 0.622298 5.76971C0.622298 6.55944 0.606766 7.37591 0.590189 8.24001C0.436663 16.2801 0.226387 27.2914 13.6326 31.9383C13.7515 31.9795 13.8754 32.0001 13.9994 32.0001C14.1233 32.0001 14.2474 31.9795 14.3662 31.9383C27.7734 27.2913 27.5634 16.2797 27.4099 8.23942ZM13.9995 29.6914C2.50194 25.5147 2.67578 16.3651 2.83005 8.28273C2.83931 7.79766 2.84827 7.32752 2.85455 6.86664C7.34085 6.67728 10.9284 5.31779 13.9995 2.64244C17.0709 5.31779 20.6591 6.67742 25.1457 6.86664C25.1519 7.32737 25.1609 7.79721 25.1702 8.28198C25.3243 16.3646 25.498 25.5145 13.9995 29.6914Z" fill="#6799BA"/>
</svg>
