<svg width="48" height="48" viewBox="0 0 48 48" fill="none" xmlns="http://www.w3.org/2000/svg">
<g filter="url(#filter0_dd_192_2130)">
<circle cx="24" cy="22" r="16" fill="white"/>
</g>
<path d="M24 10C19.5817 10 16 13.5817 16 18C16 19.421 16.3816 20.75 17.0312 21.906C17.1391 22.098 17.2522 22.287 17.375 22.469L24 34L30.625 22.469C30.727 22.318 30.815 22.158 30.906 22L30.969 21.906C31.618 20.75 32 19.421 32 18C32 13.5817 28.418 10 24 10ZM24 14C26.209 14 28 15.7909 28 18C28 20.209 26.209 22 24 22C21.7909 22 20 20.209 20 18C20 15.7909 21.7909 14 24 14Z" fill="#174EBC"/>
<path d="M24 13C21.2386 13 19 15.2386 19 18C19 20.761 21.2386 23 24 23C26.761 23 29 20.761 29 18C29 15.2386 26.761 13 24 13ZM24 15C25.657 15 27 16.3431 27 18C27 19.6569 25.657 21 24 21C22.343 21 21 19.6569 21 18C21 16.3431 22.343 15 24 15Z" fill="#174EBC"/>
<defs>
<filter id="filter0_dd_192_2130" x="0" y="0" width="48" height="48" filterUnits="userSpaceOnUse" color-interpolation-filters="sRGB">
<feFlood flood-opacity="0" result="BackgroundImageFix"/>
<feColorMatrix in="SourceAlpha" type="matrix" values="0 0 0 0 0 0 0 0 0 0 0 0 0 0 0 0 0 0 127 0" result="hardAlpha"/>
<feMorphology radius="2" operator="dilate" in="SourceAlpha" result="effect1_dropShadow_192_2130"/>
<feOffset dy="2"/>
<feGaussianBlur stdDeviation="3"/>
<feComposite in2="hardAlpha" operator="out"/>
<feColorMatrix type="matrix" values="0 0 0 0 0 0 0 0 0 0 0 0 0 0 0 0 0 0 0.15 0"/>
<feBlend mode="normal" in2="BackgroundImageFix" result="effect1_dropShadow_192_2130"/>
<feColorMatrix in="SourceAlpha" type="matrix" values="0 0 0 0 0 0 0 0 0 0 0 0 0 0 0 0 0 0 127 0" result="hardAlpha"/>
<feOffset dy="1"/>
<feGaussianBlur stdDeviation="1"/>
<feComposite in2="hardAlpha" operator="out"/>
<feColorMatrix type="matrix" values="0 0 0 0 0 0 0 0 0 0 0 0 0 0 0 0 0 0 0.3 0"/>
<feBlend mode="normal" in2="effect1_dropShadow_192_2130" result="effect2_dropShadow_192_2130"/>
<feBlend mode="normal" in="SourceGraphic" in2="effect2_dropShadow_192_2130" result="shape"/>
</filter>
</defs>
</svg>
