<svg width="156" height="17" viewBox="0 0 156 17" fill="none" xmlns="http://www.w3.org/2000/svg">
<rect y="8" width="72" height="1" fill="#6799BA"/>
<path d="M81.6506 14H80.358L84.0966 3.81818H85.3693L89.108 14H87.8153L84.7727 5.42898H84.6932L81.6506 14ZM82.1278 10.0227H87.3381V11.1165H82.1278V10.0227ZM90.4139 14V3.81818H91.5872V7.5767H91.6866C91.7728 7.44413 91.8921 7.27509 92.0446 7.0696C92.2004 6.8608 92.4224 6.67519 92.7108 6.51278C93.0024 6.34706 93.3968 6.2642 93.894 6.2642C94.537 6.2642 95.1038 6.42495 95.5943 6.74645C96.0848 7.06794 96.4676 7.52367 96.7427 8.11364C97.0178 8.7036 97.1554 9.39962 97.1554 10.2017C97.1554 11.0104 97.0178 11.7114 96.7427 12.3047C96.4676 12.8946 96.0865 13.352 95.5993 13.6768C95.112 13.9983 94.5503 14.1591 93.9139 14.1591C93.4234 14.1591 93.0306 14.0779 92.7356 13.9155C92.4406 13.7498 92.2136 13.5625 92.0545 13.3537C91.8954 13.1416 91.7728 12.9659 91.6866 12.8267H91.5474V14H90.4139ZM91.5673 10.1818C91.5673 10.7585 91.6518 11.2673 91.8209 11.7081C91.9899 12.1456 92.2368 12.4886 92.5616 12.7372C92.8864 12.9825 93.2842 13.1051 93.7548 13.1051C94.2453 13.1051 94.6547 12.9759 94.9828 12.7173C95.3142 12.4555 95.5628 12.1042 95.7285 11.6634C95.8976 11.2192 95.9821 10.7254 95.9821 10.1818C95.9821 9.64489 95.8992 9.16098 95.7335 8.73011C95.5711 8.29593 95.3242 7.95289 94.9927 7.70099C94.6646 7.44579 94.252 7.31818 93.7548 7.31818C93.2775 7.31818 92.8765 7.43916 92.5517 7.68111C92.2269 7.91974 91.9816 8.2545 91.8159 8.68537C91.6502 9.11293 91.5673 9.61174 91.5673 10.1818ZM101.772 14.1591C101.083 14.1591 100.478 13.995 99.9578 13.6669C99.4407 13.3388 99.0364 12.8797 98.7447 12.2898C98.4563 11.6998 98.3122 11.0104 98.3122 10.2216C98.3122 9.42614 98.4563 8.73177 98.7447 8.13849C99.0364 7.54522 99.4407 7.08452 99.9578 6.75639C100.478 6.42827 101.083 6.2642 101.772 6.2642C102.462 6.2642 103.065 6.42827 103.582 6.75639C104.102 7.08452 104.507 7.54522 104.795 8.13849C105.087 8.73177 105.233 9.42614 105.233 10.2216C105.233 11.0104 105.087 11.6998 104.795 12.2898C104.507 12.8797 104.102 13.3388 103.582 13.6669C103.065 13.995 102.462 14.1591 101.772 14.1591ZM101.772 13.1051C102.296 13.1051 102.727 12.9709 103.065 12.7024C103.403 12.4339 103.653 12.081 103.816 11.6435C103.978 11.206 104.059 10.732 104.059 10.2216C104.059 9.71117 103.978 9.23556 103.816 8.79474C103.653 8.35393 103.403 7.99763 103.065 7.72585C102.727 7.45407 102.296 7.31818 101.772 7.31818C101.249 7.31818 100.818 7.45407 100.48 7.72585C100.142 7.99763 99.8915 8.35393 99.7291 8.79474C99.5667 9.23556 99.4855 9.71117 99.4855 10.2216C99.4855 10.732 99.5667 11.206 99.7291 11.6435C99.8915 12.081 100.142 12.4339 100.48 12.7024C100.818 12.9709 101.249 13.1051 101.772 13.1051ZM111.556 10.8778V6.36364H112.729V14H111.556V12.7074H111.477C111.298 13.0952 111.019 13.425 110.641 13.6967C110.264 13.9652 109.786 14.0994 109.21 14.0994C108.732 14.0994 108.308 13.995 107.937 13.7862C107.566 13.5741 107.274 13.2559 107.062 12.8317C106.85 12.4041 106.744 11.8655 106.744 11.2159V6.36364H107.917V11.1364C107.917 11.6932 108.073 12.1373 108.384 12.4688C108.699 12.8002 109.1 12.9659 109.587 12.9659C109.879 12.9659 110.176 12.8913 110.477 12.7422C110.782 12.593 111.037 12.3643 111.243 12.0561C111.452 11.7479 111.556 11.3551 111.556 10.8778ZM117.919 6.36364V7.35795H113.962V6.36364H117.919ZM115.115 4.53409H116.289V11.8125C116.289 12.1439 116.337 12.3925 116.433 12.5582C116.532 12.7206 116.658 12.83 116.811 12.8864C116.967 12.9394 117.131 12.9659 117.303 12.9659C117.432 12.9659 117.538 12.9593 117.621 12.946C117.704 12.9295 117.77 12.9162 117.82 12.9062L118.059 13.9602C117.979 13.9901 117.868 14.0199 117.726 14.0497C117.583 14.0829 117.402 14.0994 117.184 14.0994C116.852 14.0994 116.527 14.0282 116.209 13.8857C115.894 13.7431 115.632 13.526 115.424 13.2344C115.218 12.9427 115.115 12.5748 115.115 12.1307V4.53409ZM127.874 10.8778V6.36364H129.048V14H127.874V12.7074H127.795C127.616 13.0952 127.337 13.425 126.96 13.6967C126.582 13.9652 126.104 14.0994 125.528 14.0994C125.05 14.0994 124.626 13.995 124.255 13.7862C123.884 13.5741 123.592 13.2559 123.38 12.8317C123.168 12.4041 123.062 11.8655 123.062 11.2159V6.36364H124.235V11.1364C124.235 11.6932 124.391 12.1373 124.702 12.4688C125.017 12.8002 125.418 12.9659 125.906 12.9659C126.197 12.9659 126.494 12.8913 126.795 12.7422C127.1 12.593 127.356 12.3643 127.561 12.0561C127.77 11.7479 127.874 11.3551 127.874 10.8778ZM136.326 8.07386L135.272 8.37216C135.205 8.1965 135.108 8.0258 134.978 7.86009C134.852 7.69105 134.68 7.55185 134.461 7.44247C134.243 7.3331 133.963 7.27841 133.621 7.27841C133.154 7.27841 132.764 7.38613 132.453 7.60156C132.145 7.81368 131.99 8.08381 131.99 8.41193C131.99 8.7036 132.097 8.93395 132.309 9.10298C132.521 9.27202 132.852 9.41288 133.303 9.52557L134.436 9.80398C135.119 9.9697 135.628 10.2232 135.963 10.5646C136.298 10.9027 136.465 11.3385 136.465 11.8722C136.465 12.3097 136.339 12.7008 136.087 13.0455C135.838 13.3902 135.49 13.6619 135.043 13.8608C134.596 14.0597 134.075 14.1591 133.482 14.1591C132.703 14.1591 132.058 13.9901 131.548 13.652C131.038 13.3139 130.714 12.8201 130.579 12.1705L131.692 11.892C131.798 12.303 131.999 12.6113 132.294 12.8168C132.592 13.0223 132.981 13.125 133.462 13.125C134.009 13.125 134.443 13.009 134.765 12.777C135.089 12.5417 135.252 12.2599 135.252 11.9318C135.252 11.6667 135.159 11.4446 134.973 11.2656C134.788 11.0833 134.503 10.9474 134.118 10.858L132.846 10.5597C132.146 10.3939 131.633 10.1371 131.304 9.78906C130.98 9.43774 130.817 8.99858 130.817 8.47159C130.817 8.04072 130.938 7.65956 131.18 7.32812C131.425 6.99669 131.758 6.73651 132.179 6.54758C132.604 6.35866 133.084 6.2642 133.621 6.2642C134.377 6.2642 134.97 6.42992 135.401 6.76136C135.835 7.0928 136.143 7.5303 136.326 8.07386Z" fill="#6799BA"/>
</svg>
