<svg width="48" height="48" viewBox="0 0 48 48" fill="none" xmlns="http://www.w3.org/2000/svg">
<g filter="url(#filter0_dd_192_2115)">
<circle cx="24" cy="22" r="16" fill="white"/>
<path d="M31.4401 23.0004C31.2201 23.0004 30.9901 22.9304 30.7701 22.8804C30.3246 22.7822 29.8868 22.6518 29.4601 22.4904C28.9962 22.3216 28.4862 22.3304 28.0284 22.515C27.5706 22.6996 27.1972 23.047 26.9801 23.4904L26.7601 23.9404C25.7861 23.3985 24.8911 22.7256 24.1001 21.9404C23.3149 21.1494 22.6419 20.2544 22.1001 19.2804L22.5201 19.0004C22.9635 18.7833 23.3109 18.4099 23.4955 17.952C23.6801 17.4942 23.6889 16.9843 23.5201 16.5204C23.3613 16.0928 23.231 15.6552 23.1301 15.2104C23.0801 14.9904 23.0401 14.7604 23.0101 14.5304C22.8887 13.826 22.5197 13.1881 21.9697 12.7316C21.4197 12.2751 20.7248 12.03 20.0101 12.0404H17.0101C16.5791 12.0363 16.1524 12.1252 15.7588 12.3009C15.3653 12.4766 15.0142 12.7351 14.7295 13.0586C14.4449 13.3822 14.2332 13.7634 14.1091 14.1761C13.9849 14.5888 13.9512 15.0234 14.0101 15.4504C14.5428 19.6397 16.4561 23.5322 19.4478 26.513C22.4394 29.4938 26.3388 31.3929 30.5301 31.9104H30.9101C31.6475 31.9114 32.3595 31.6409 32.9101 31.1504C33.2265 30.8674 33.4792 30.5205 33.6516 30.1327C33.8239 29.7448 33.9121 29.3248 33.9101 28.9004V25.9004C33.8979 25.2057 33.6449 24.5369 33.1944 24.008C32.744 23.4791 32.1239 23.123 31.4401 23.0004ZM31.9401 29.0004C31.9399 29.1423 31.9095 29.2827 31.8509 29.412C31.7923 29.5413 31.7068 29.6566 31.6001 29.7504C31.4887 29.8474 31.3581 29.9198 31.2168 29.9629C31.0755 30.0059 30.9267 30.0187 30.7801 30.0004C27.035 29.5202 23.5563 27.8068 20.8928 25.1306C18.2293 22.4545 16.5325 18.9677 16.0701 15.2204C16.0542 15.0739 16.0681 14.9257 16.1111 14.7847C16.1541 14.6438 16.2252 14.513 16.3201 14.4004C16.4138 14.2937 16.5292 14.2082 16.6585 14.1496C16.7878 14.0909 16.9281 14.0605 17.0701 14.0604H20.0701C20.3026 14.0552 20.5297 14.1312 20.7122 14.2754C20.8948 14.4196 21.0213 14.6229 21.0701 14.8504C21.1101 15.1237 21.1601 15.3937 21.2201 15.6604C21.3356 16.1875 21.4894 16.7055 21.6801 17.2104L20.2801 17.8604C20.1604 17.9153 20.0527 17.9933 19.9633 18.09C19.8738 18.1866 19.8043 18.3 19.7588 18.4236C19.7132 18.5471 19.6926 18.6785 19.6979 18.8101C19.7033 18.9417 19.7346 19.0709 19.7901 19.1904C21.2293 22.2731 23.7073 24.7512 26.7901 26.1904C27.0336 26.2904 27.3066 26.2904 27.5501 26.1904C27.6748 26.1457 27.7894 26.0768 27.8873 25.9875C27.9851 25.8983 28.0643 25.7905 28.1201 25.6704L28.7401 24.2704C29.2571 24.4552 29.7847 24.6088 30.3201 24.7304C30.5868 24.7904 30.8568 24.8404 31.1301 24.8804C31.3575 24.9291 31.5608 25.0557 31.705 25.2382C31.8492 25.4207 31.9253 25.6478 31.9201 25.8804L31.9401 29.0004Z" fill="#174EBC"/>
</g>
<defs>
<filter id="filter0_dd_192_2115" x="0" y="0" width="48" height="48" filterUnits="userSpaceOnUse" color-interpolation-filters="sRGB">
<feFlood flood-opacity="0" result="BackgroundImageFix"/>
<feColorMatrix in="SourceAlpha" type="matrix" values="0 0 0 0 0 0 0 0 0 0 0 0 0 0 0 0 0 0 127 0" result="hardAlpha"/>
<feMorphology radius="2" operator="dilate" in="SourceAlpha" result="effect1_dropShadow_192_2115"/>
<feOffset dy="2"/>
<feGaussianBlur stdDeviation="3"/>
<feComposite in2="hardAlpha" operator="out"/>
<feColorMatrix type="matrix" values="0 0 0 0 0 0 0 0 0 0 0 0 0 0 0 0 0 0 0.15 0"/>
<feBlend mode="normal" in2="BackgroundImageFix" result="effect1_dropShadow_192_2115"/>
<feColorMatrix in="SourceAlpha" type="matrix" values="0 0 0 0 0 0 0 0 0 0 0 0 0 0 0 0 0 0 127 0" result="hardAlpha"/>
<feOffset dy="1"/>
<feGaussianBlur stdDeviation="1"/>
<feComposite in2="hardAlpha" operator="out"/>
<feColorMatrix type="matrix" values="0 0 0 0 0 0 0 0 0 0 0 0 0 0 0 0 0 0 0.3 0"/>
<feBlend mode="normal" in2="effect1_dropShadow_192_2115" result="effect2_dropShadow_192_2115"/>
<feBlend mode="normal" in="SourceGraphic" in2="effect2_dropShadow_192_2115" result="shape"/>
</filter>
</defs>
</svg>
