<svg width="156" height="17" viewBox="0 0 156 17" fill="none" xmlns="http://www.w3.org/2000/svg">
<rect y="8" width="72" height="1" fill="#6799BA"/>
<path d="M86.8011 6.36364C86.7415 5.85985 86.4995 5.46875 86.0753 5.19034C85.651 4.91193 85.1307 4.77273 84.5142 4.77273C84.0634 4.77273 83.669 4.84564 83.331 4.99148C82.9962 5.13731 82.7344 5.33783 82.5455 5.59304C82.3598 5.84825 82.267 6.13826 82.267 6.46307C82.267 6.73485 82.3317 6.96851 82.4609 7.16406C82.5935 7.3563 82.7625 7.51705 82.968 7.64631C83.1735 7.77225 83.389 7.87666 83.6143 7.95952C83.8397 8.03906 84.0469 8.10369 84.2358 8.15341L85.2699 8.43182C85.535 8.50142 85.83 8.59754 86.1548 8.72017C86.483 8.8428 86.7962 9.01018 87.0945 9.2223C87.3961 9.43111 87.6446 9.69957 87.8402 10.0277C88.0357 10.3558 88.1335 10.7585 88.1335 11.2358C88.1335 11.786 87.9893 12.2831 87.701 12.7273C87.416 13.1714 86.9983 13.5244 86.4482 13.7862C85.9013 14.0481 85.2367 14.179 84.4545 14.179C83.7254 14.179 83.094 14.0613 82.5604 13.826C82.0301 13.5907 81.6125 13.2625 81.3075 12.8416C81.0059 12.4207 80.8352 11.9318 80.7955 11.375H82.0682C82.1013 11.7595 82.2306 12.0777 82.456 12.3295C82.6847 12.5781 82.973 12.7637 83.321 12.8864C83.6723 13.0057 84.0502 13.0653 84.4545 13.0653C84.9252 13.0653 85.3478 12.9891 85.7223 12.8366C86.0968 12.6809 86.3935 12.4654 86.6122 12.1903C86.831 11.9119 86.9403 11.5871 86.9403 11.2159C86.9403 10.8778 86.8459 10.6027 86.657 10.3906C86.468 10.1785 86.2195 10.0062 85.9112 9.87358C85.603 9.741 85.2699 9.625 84.9119 9.52557L83.6591 9.16761C82.8636 8.93892 82.2339 8.61245 81.7699 8.18821C81.3059 7.76397 81.0739 7.20881 81.0739 6.52273C81.0739 5.95265 81.228 5.45549 81.5362 5.03125C81.8478 4.60369 82.2654 4.27225 82.7891 4.03693C83.3161 3.7983 83.9044 3.67898 84.554 3.67898C85.2102 3.67898 85.7936 3.79664 86.304 4.03196C86.8144 4.26397 87.2188 4.58215 87.517 4.98651C87.8187 5.39086 87.9777 5.8499 87.9943 6.36364H86.8011ZM92.9233 14.1591C92.1875 14.1591 91.5528 13.9967 91.0192 13.6719C90.4889 13.3438 90.0796 12.8864 89.7912 12.2997C89.5062 11.7098 89.3636 11.0237 89.3636 10.2415C89.3636 9.45928 89.5062 8.76989 89.7912 8.1733C90.0796 7.57339 90.4806 7.10606 90.9943 6.77131C91.5114 6.43324 92.1146 6.2642 92.804 6.2642C93.2017 6.2642 93.5945 6.33049 93.9823 6.46307C94.37 6.59564 94.723 6.81108 95.0412 7.10938C95.3594 7.40436 95.6129 7.79545 95.8019 8.28267C95.9908 8.76989 96.0852 9.36979 96.0852 10.0824V10.5795H90.1989V9.56534H94.8921C94.8921 9.13447 94.8059 8.75 94.6335 8.41193C94.4645 8.07386 94.2225 7.80705 93.9077 7.61151C93.5961 7.41596 93.2282 7.31818 92.804 7.31818C92.3367 7.31818 91.9323 7.43419 91.5909 7.66619C91.2528 7.89489 90.9927 8.19318 90.8104 8.56108C90.6281 8.92898 90.5369 9.32339 90.5369 9.74432V10.4205C90.5369 10.9972 90.6364 11.486 90.8352 11.8871C91.0374 12.2848 91.3175 12.5881 91.6754 12.7969C92.0334 13.0024 92.4493 13.1051 92.9233 13.1051C93.2315 13.1051 93.51 13.062 93.7585 12.9759C94.0104 12.8864 94.2275 12.7538 94.4098 12.5781C94.5921 12.3991 94.733 12.1771 94.8324 11.9119L95.9659 12.2301C95.8466 12.6146 95.6461 12.9527 95.3644 13.2443C95.0826 13.5327 94.7346 13.758 94.3203 13.9205C93.906 14.0795 93.4403 14.1591 92.9233 14.1591ZM97.59 14V6.36364H98.7236V7.51705H98.8031C98.9423 7.1392 99.1942 6.83262 99.5588 6.5973C99.9234 6.36198 100.334 6.24432 100.792 6.24432C100.878 6.24432 100.986 6.24597 101.115 6.24929C101.244 6.2526 101.342 6.25758 101.408 6.2642V7.45739C101.368 7.44744 101.277 7.43253 101.135 7.41264C100.996 7.38944 100.848 7.37784 100.692 7.37784C100.321 7.37784 99.9897 7.45573 99.698 7.61151C99.4096 7.76397 99.1809 7.97609 99.0119 8.24787C98.8462 8.51634 98.7633 8.82292 98.7633 9.16761V14H97.59ZM108.996 6.36364L106.172 14H104.979L102.155 6.36364H103.428L105.536 12.4489H105.615L107.723 6.36364H108.996ZM110.264 14V6.36364H111.438V14H110.264ZM110.861 5.09091C110.632 5.09091 110.435 5.01302 110.269 4.85724C110.107 4.70147 110.026 4.5142 110.026 4.29545C110.026 4.0767 110.107 3.88944 110.269 3.73366C110.435 3.57789 110.632 3.5 110.861 3.5C111.09 3.5 111.285 3.57789 111.448 3.73366C111.613 3.88944 111.696 4.0767 111.696 4.29545C111.696 4.5142 111.613 4.70147 111.448 4.85724C111.285 5.01302 111.09 5.09091 110.861 5.09091ZM116.409 14.1591C115.693 14.1591 115.077 13.9901 114.56 13.652C114.042 13.3139 113.645 12.8482 113.366 12.255C113.088 11.6617 112.949 10.9839 112.949 10.2216C112.949 9.44602 113.091 8.7616 113.376 8.16832C113.665 7.57173 114.066 7.10606 114.579 6.77131C115.096 6.43324 115.7 6.2642 116.389 6.2642C116.926 6.2642 117.41 6.36364 117.841 6.5625C118.272 6.76136 118.625 7.03977 118.9 7.39773C119.175 7.75568 119.346 8.1733 119.412 8.65057H118.238C118.149 8.30256 117.95 7.99432 117.642 7.72585C117.337 7.45407 116.926 7.31818 116.409 7.31818C115.952 7.31818 115.551 7.4375 115.206 7.67614C114.864 7.91146 114.598 8.24455 114.405 8.67543C114.216 9.10298 114.122 9.60511 114.122 10.1818C114.122 10.7718 114.215 11.2855 114.4 11.723C114.589 12.1605 114.854 12.5002 115.196 12.7422C115.541 12.9841 115.945 13.1051 116.409 13.1051C116.714 13.1051 116.991 13.0521 117.239 12.946C117.488 12.84 117.698 12.6875 117.871 12.4886C118.043 12.2898 118.166 12.0511 118.238 11.7727H119.412C119.346 12.2235 119.181 12.6295 118.92 12.9908C118.661 13.3487 118.318 13.6338 117.89 13.8459C117.466 14.0547 116.972 14.1591 116.409 14.1591ZM124.049 14.1591C123.313 14.1591 122.678 13.9967 122.145 13.6719C121.614 13.3438 121.205 12.8864 120.917 12.2997C120.632 11.7098 120.489 11.0237 120.489 10.2415C120.489 9.45928 120.632 8.76989 120.917 8.1733C121.205 7.57339 121.606 7.10606 122.12 6.77131C122.637 6.43324 123.24 6.2642 123.929 6.2642C124.327 6.2642 124.72 6.33049 125.108 6.46307C125.495 6.59564 125.848 6.81108 126.167 7.10938C126.485 7.40436 126.738 7.79545 126.927 8.28267C127.116 8.76989 127.211 9.36979 127.211 10.0824V10.5795H121.324V9.56534H126.017C126.017 9.13447 125.931 8.75 125.759 8.41193C125.59 8.07386 125.348 7.80705 125.033 7.61151C124.722 7.41596 124.354 7.31818 123.929 7.31818C123.462 7.31818 123.058 7.43419 122.716 7.66619C122.378 7.89489 122.118 8.19318 121.936 8.56108C121.753 8.92898 121.662 9.32339 121.662 9.74432V10.4205C121.662 10.9972 121.762 11.486 121.961 11.8871C122.163 12.2848 122.443 12.5881 122.801 12.7969C123.159 13.0024 123.575 13.1051 124.049 13.1051C124.357 13.1051 124.635 13.062 124.884 12.9759C125.136 12.8864 125.353 12.7538 125.535 12.5781C125.717 12.3991 125.858 12.1771 125.958 11.9119L127.091 12.2301C126.972 12.6146 126.771 12.9527 126.49 13.2443C126.208 13.5327 125.86 13.758 125.446 13.9205C125.031 14.0795 124.566 14.1591 124.049 14.1591ZM134.125 8.07386L133.071 8.37216C133.004 8.1965 132.906 8.0258 132.777 7.86009C132.651 7.69105 132.479 7.55185 132.26 7.44247C132.041 7.3331 131.761 7.27841 131.42 7.27841C130.953 7.27841 130.563 7.38613 130.252 7.60156C129.943 7.81368 129.789 8.08381 129.789 8.41193C129.789 8.7036 129.895 8.93395 130.107 9.10298C130.32 9.27202 130.651 9.41288 131.102 9.52557L132.235 9.80398C132.918 9.9697 133.427 10.2232 133.762 10.5646C134.096 10.9027 134.264 11.3385 134.264 11.8722C134.264 12.3097 134.138 12.7008 133.886 13.0455C133.637 13.3902 133.289 13.6619 132.842 13.8608C132.394 14.0597 131.874 14.1591 131.281 14.1591C130.502 14.1591 129.857 13.9901 129.347 13.652C128.836 13.3139 128.513 12.8201 128.377 12.1705L129.491 11.892C129.597 12.303 129.798 12.6113 130.093 12.8168C130.391 13.0223 130.78 13.125 131.261 13.125C131.808 13.125 132.242 13.009 132.563 12.777C132.888 12.5417 133.051 12.2599 133.051 11.9318C133.051 11.6667 132.958 11.4446 132.772 11.2656C132.587 11.0833 132.302 10.9474 131.917 10.858L130.644 10.5597C129.945 10.3939 129.431 10.1371 129.103 9.78906C128.778 9.43774 128.616 8.99858 128.616 8.47159C128.616 8.04072 128.737 7.65956 128.979 7.32812C129.224 6.99669 129.557 6.73651 129.978 6.54758C130.402 6.35866 130.883 6.2642 131.42 6.2642C132.176 6.2642 132.769 6.42992 133.2 6.76136C133.634 7.0928 133.942 7.5303 134.125 8.07386Z" fill="#6799BA"/>
</svg>
