<svg width="280" height="17" viewBox="0 0 280 17" fill="none" xmlns="http://www.w3.org/2000/svg">
<rect x="0.5" y="8" width="72" height="1" fill="#6799BA"/>
<path d="M95.7312 6.36364C95.6716 5.85985 95.4296 5.46875 95.0054 5.19034C94.5811 4.91193 94.0608 4.77273 93.4443 4.77273C92.9935 4.77273 92.5991 4.84564 92.261 4.99148C91.9263 5.13731 91.6645 5.33783 91.4755 5.59304C91.2899 5.84825 91.1971 6.13826 91.1971 6.46307C91.1971 6.73485 91.2618 6.96851 91.391 7.16406C91.5236 7.3563 91.6926 7.51705 91.8981 7.64631C92.1036 7.77225 92.319 7.87666 92.5444 7.95952C92.7698 8.03906 92.977 8.10369 93.1659 8.15341L94.2 8.43182C94.4651 8.50142 94.7601 8.59754 95.0849 8.72017C95.413 8.8428 95.7262 9.01018 96.0245 9.2223C96.3261 9.43111 96.5747 9.69957 96.7703 10.0277C96.9658 10.3558 97.0636 10.7585 97.0636 11.2358C97.0636 11.786 96.9194 12.2831 96.6311 12.7273C96.346 13.1714 95.9284 13.5244 95.3782 13.7862C94.8314 14.0481 94.1668 14.179 93.3846 14.179C92.6555 14.179 92.0241 14.0613 91.4904 13.826C90.9601 13.5907 90.5425 13.2625 90.2376 12.8416C89.936 12.4207 89.7653 11.9318 89.7255 11.375H90.9983C91.0314 11.7595 91.1607 12.0777 91.386 12.3295C91.6147 12.5781 91.9031 12.7637 92.2511 12.8864C92.6024 13.0057 92.9803 13.0653 93.3846 13.0653C93.8553 13.0653 94.2779 12.9891 94.6524 12.8366C95.0269 12.6809 95.3235 12.4654 95.5423 12.1903C95.761 11.9119 95.8704 11.5871 95.8704 11.2159C95.8704 10.8778 95.776 10.6027 95.587 10.3906C95.3981 10.1785 95.1495 10.0062 94.8413 9.87358C94.5331 9.741 94.2 9.625 93.842 9.52557L92.5892 9.16761C91.7937 8.93892 91.164 8.61245 90.7 8.18821C90.2359 7.76397 90.0039 7.20881 90.0039 6.52273C90.0039 5.95265 90.1581 5.45549 90.4663 5.03125C90.7779 4.60369 91.1955 4.27225 91.7191 4.03693C92.2461 3.7983 92.8344 3.67898 93.4841 3.67898C94.1403 3.67898 94.7236 3.79664 95.2341 4.03196C95.7445 4.26397 96.1488 4.58215 96.4471 4.98651C96.7487 5.39086 96.9078 5.8499 96.9244 6.36364H95.7312ZM98.6517 16.8636V6.36364H99.7852V7.5767H99.9244C100.011 7.44413 100.13 7.27509 100.282 7.0696C100.438 6.8608 100.66 6.67519 100.949 6.51278C101.24 6.34706 101.635 6.2642 102.132 6.2642C102.775 6.2642 103.342 6.42495 103.832 6.74645C104.323 7.06794 104.705 7.52367 104.981 8.11364C105.256 8.7036 105.393 9.39962 105.393 10.2017C105.393 11.0104 105.256 11.7114 104.981 12.3047C104.705 12.8946 104.324 13.352 103.837 13.6768C103.35 13.9983 102.788 14.1591 102.152 14.1591C101.661 14.1591 101.268 14.0779 100.973 13.9155C100.678 13.7498 100.451 13.5625 100.292 13.3537C100.133 13.1416 100.011 12.9659 99.9244 12.8267H99.825V16.8636H98.6517ZM99.8051 10.1818C99.8051 10.7585 99.8896 11.2673 100.059 11.7081C100.228 12.1456 100.475 12.4886 100.799 12.7372C101.124 12.9825 101.522 13.1051 101.993 13.1051C102.483 13.1051 102.892 12.9759 103.221 12.7173C103.552 12.4555 103.801 12.1042 103.966 11.6634C104.135 11.2192 104.22 10.7254 104.22 10.1818C104.22 9.64489 104.137 9.16098 103.971 8.73011C103.809 8.29593 103.562 7.95289 103.231 7.70099C102.902 7.44579 102.49 7.31818 101.993 7.31818C101.515 7.31818 101.114 7.43916 100.789 7.68111C100.465 7.91974 100.219 8.2545 100.054 8.68537C99.8879 9.11293 99.8051 9.61174 99.8051 10.1818ZM110.105 14.1591C109.369 14.1591 108.734 13.9967 108.201 13.6719C107.67 13.3438 107.261 12.8864 106.973 12.2997C106.687 11.7098 106.545 11.0237 106.545 10.2415C106.545 9.45928 106.687 8.76989 106.973 8.1733C107.261 7.57339 107.662 7.10606 108.176 6.77131C108.693 6.43324 109.296 6.2642 109.985 6.2642C110.383 6.2642 110.776 6.33049 111.164 6.46307C111.551 6.59564 111.904 6.81108 112.223 7.10938C112.541 7.40436 112.794 7.79545 112.983 8.28267C113.172 8.76989 113.267 9.36979 113.267 10.0824V10.5795H107.38V9.56534H112.073C112.073 9.13447 111.987 8.75 111.815 8.41193C111.646 8.07386 111.404 7.80705 111.089 7.61151C110.777 7.41596 110.41 7.31818 109.985 7.31818C109.518 7.31818 109.114 7.43419 108.772 7.66619C108.434 7.89489 108.174 8.19318 107.992 8.56108C107.809 8.92898 107.718 9.32339 107.718 9.74432V10.4205C107.718 10.9972 107.818 11.486 108.017 11.8871C108.219 12.2848 108.499 12.5881 108.857 12.7969C109.215 13.0024 109.631 13.1051 110.105 13.1051C110.413 13.1051 110.691 13.062 110.94 12.9759C111.192 12.8864 111.409 12.7538 111.591 12.5781C111.773 12.3991 111.914 12.1771 112.014 11.9119L113.147 12.2301C113.028 12.6146 112.827 12.9527 112.546 13.2443C112.264 13.5327 111.916 13.758 111.502 13.9205C111.087 14.0795 110.622 14.1591 110.105 14.1591ZM117.874 14.1591C117.158 14.1591 116.541 13.9901 116.024 13.652C115.507 13.3139 115.109 12.8482 114.831 12.255C114.553 11.6617 114.413 10.9839 114.413 10.2216C114.413 9.44602 114.556 8.7616 114.841 8.16832C115.129 7.57173 115.53 7.10606 116.044 6.77131C116.561 6.43324 117.164 6.2642 117.854 6.2642C118.391 6.2642 118.875 6.36364 119.305 6.5625C119.736 6.76136 120.089 7.03977 120.364 7.39773C120.639 7.75568 120.81 8.1733 120.876 8.65057H119.703C119.614 8.30256 119.415 7.99432 119.107 7.72585C118.802 7.45407 118.391 7.31818 117.874 7.31818C117.416 7.31818 117.015 7.4375 116.671 7.67614C116.329 7.91146 116.062 8.24455 115.87 8.67543C115.681 9.10298 115.587 9.60511 115.587 10.1818C115.587 10.7718 115.68 11.2855 115.865 11.723C116.054 12.1605 116.319 12.5002 116.661 12.7422C117.005 12.9841 117.41 13.1051 117.874 13.1051C118.179 13.1051 118.455 13.0521 118.704 12.946C118.952 12.84 119.163 12.6875 119.335 12.4886C119.508 12.2898 119.63 12.0511 119.703 11.7727H120.876C120.81 12.2235 120.646 12.6295 120.384 12.9908C120.126 13.3487 119.783 13.6338 119.355 13.8459C118.931 14.0547 118.437 14.1591 117.874 14.1591ZM122.312 14V6.36364H123.485V14H122.312ZM122.908 5.09091C122.68 5.09091 122.482 5.01302 122.317 4.85724C122.154 4.70147 122.073 4.5142 122.073 4.29545C122.073 4.0767 122.154 3.88944 122.317 3.73366C122.482 3.57789 122.68 3.5 122.908 3.5C123.137 3.5 123.333 3.57789 123.495 3.73366C123.661 3.88944 123.743 4.0767 123.743 4.29545C123.743 4.5142 123.661 4.70147 123.495 4.85724C123.333 5.01302 123.137 5.09091 122.908 5.09091ZM127.601 14.179C127.117 14.179 126.678 14.0878 126.284 13.9055C125.889 13.7199 125.576 13.4531 125.344 13.1051C125.112 12.7538 124.996 12.3295 124.996 11.8324C124.996 11.3949 125.082 11.0402 125.255 10.7685C125.427 10.4934 125.657 10.2779 125.946 10.1222C126.234 9.96638 126.552 9.85038 126.9 9.77415C127.251 9.6946 127.604 9.63163 127.959 9.58523C128.423 9.52557 128.799 9.48082 129.088 9.45099C129.379 9.41785 129.591 9.36316 129.724 9.28693C129.86 9.2107 129.928 9.07812 129.928 8.8892V8.84943C129.928 8.3589 129.794 7.97775 129.525 7.70597C129.26 7.43419 128.857 7.2983 128.317 7.2983C127.757 7.2983 127.318 7.42093 127 7.66619C126.681 7.91146 126.458 8.1733 126.328 8.4517L125.215 8.05398C125.414 7.58996 125.679 7.22869 126.01 6.97017C126.345 6.70833 126.71 6.52604 127.104 6.4233C127.502 6.31723 127.893 6.2642 128.277 6.2642C128.522 6.2642 128.804 6.29403 129.122 6.35369C129.444 6.41004 129.754 6.5277 130.052 6.70668C130.354 6.88565 130.604 7.15578 130.803 7.51705C131.002 7.87831 131.101 8.36222 131.101 8.96875V14H129.928V12.9659H129.868C129.789 13.1316 129.656 13.3089 129.47 13.4979C129.285 13.6868 129.038 13.8475 128.73 13.9801C128.421 14.1127 128.045 14.179 127.601 14.179ZM127.78 13.125C128.244 13.125 128.635 13.0339 128.953 12.8516C129.275 12.6693 129.517 12.4339 129.679 12.1456C129.845 11.8572 129.928 11.554 129.928 11.2358V10.1619C129.878 10.2216 129.769 10.2763 129.6 10.326C129.434 10.3724 129.242 10.4138 129.023 10.4503C128.808 10.4834 128.597 10.5133 128.392 10.5398C128.189 10.563 128.025 10.5829 127.899 10.5994C127.594 10.6392 127.309 10.7038 127.044 10.7933C126.782 10.8795 126.57 11.0104 126.408 11.1861C126.249 11.3584 126.169 11.5937 126.169 11.892C126.169 12.2997 126.32 12.608 126.622 12.8168C126.927 13.0223 127.313 13.125 127.78 13.125ZM134.136 3.81818V14H132.963V3.81818H134.136ZM145.39 6.36364C145.33 5.85985 145.088 5.46875 144.664 5.19034C144.24 4.91193 143.719 4.77273 143.103 4.77273C142.652 4.77273 142.258 4.84564 141.919 4.99148C141.585 5.13731 141.323 5.33783 141.134 5.59304C140.948 5.84825 140.856 6.13826 140.856 6.46307C140.856 6.73485 140.92 6.96851 141.049 7.16406C141.182 7.3563 141.351 7.51705 141.557 7.64631C141.762 7.77225 141.977 7.87666 142.203 7.95952C142.428 8.03906 142.635 8.10369 142.824 8.15341L143.858 8.43182C144.124 8.50142 144.419 8.59754 144.743 8.72017C145.071 8.8428 145.385 9.01018 145.683 9.2223C145.985 9.43111 146.233 9.69957 146.429 10.0277C146.624 10.3558 146.722 10.7585 146.722 11.2358C146.722 11.786 146.578 12.2831 146.29 12.7273C146.004 13.1714 145.587 13.5244 145.037 13.7862C144.49 14.0481 143.825 14.179 143.043 14.179C142.314 14.179 141.682 14.0613 141.149 13.826C140.619 13.5907 140.201 13.2625 139.896 12.8416C139.594 12.4207 139.424 11.9318 139.384 11.375H140.657C140.69 11.7595 140.819 12.0777 141.044 12.3295C141.273 12.5781 141.562 12.7637 141.91 12.8864C142.261 13.0057 142.639 13.0653 143.043 13.0653C143.514 13.0653 143.936 12.9891 144.311 12.8366C144.685 12.6809 144.982 12.4654 145.201 12.1903C145.419 11.9119 145.529 11.5871 145.529 11.2159C145.529 10.8778 145.434 10.6027 145.245 10.3906C145.057 10.1785 144.808 10.0062 144.5 9.87358C144.191 9.741 143.858 9.625 143.5 9.52557L142.248 9.16761C141.452 8.93892 140.822 8.61245 140.358 8.18821C139.894 7.76397 139.662 7.20881 139.662 6.52273C139.662 5.95265 139.816 5.45549 140.125 5.03125C140.436 4.60369 140.854 4.27225 141.378 4.03693C141.905 3.7983 142.493 3.67898 143.142 3.67898C143.799 3.67898 144.382 3.79664 144.892 4.03196C145.403 4.26397 145.807 4.58215 146.106 4.98651C146.407 5.39086 146.566 5.8499 146.583 6.36364H145.39ZM151.512 14.1591C150.776 14.1591 150.141 13.9967 149.608 13.6719C149.077 13.3438 148.668 12.8864 148.38 12.2997C148.095 11.7098 147.952 11.0237 147.952 10.2415C147.952 9.45928 148.095 8.76989 148.38 8.1733C148.668 7.57339 149.069 7.10606 149.583 6.77131C150.1 6.43324 150.703 6.2642 151.392 6.2642C151.79 6.2642 152.183 6.33049 152.571 6.46307C152.959 6.59564 153.312 6.81108 153.63 7.10938C153.948 7.40436 154.201 7.79545 154.39 8.28267C154.579 8.76989 154.674 9.36979 154.674 10.0824V10.5795H148.787V9.56534H153.481C153.481 9.13447 153.394 8.75 153.222 8.41193C153.053 8.07386 152.811 7.80705 152.496 7.61151C152.185 7.41596 151.817 7.31818 151.392 7.31818C150.925 7.31818 150.521 7.43419 150.179 7.66619C149.841 7.89489 149.581 8.19318 149.399 8.56108C149.217 8.92898 149.125 9.32339 149.125 9.74432V10.4205C149.125 10.9972 149.225 11.486 149.424 11.8871C149.626 12.2848 149.906 12.5881 150.264 12.7969C150.622 13.0024 151.038 13.1051 151.512 13.1051C151.82 13.1051 152.098 13.062 152.347 12.9759C152.599 12.8864 152.816 12.7538 152.998 12.5781C153.181 12.3991 153.321 12.1771 153.421 11.9119L154.554 12.2301C154.435 12.6146 154.235 12.9527 153.953 13.2443C153.671 13.5327 153.323 13.758 152.909 13.9205C152.495 14.0795 152.029 14.1591 151.512 14.1591ZM159.281 14.1591C158.565 14.1591 157.948 13.9901 157.431 13.652C156.914 13.3139 156.517 12.8482 156.238 12.255C155.96 11.6617 155.821 10.9839 155.821 10.2216C155.821 9.44602 155.963 8.7616 156.248 8.16832C156.537 7.57173 156.938 7.10606 157.451 6.77131C157.968 6.43324 158.572 6.2642 159.261 6.2642C159.798 6.2642 160.282 6.36364 160.713 6.5625C161.144 6.76136 161.496 7.03977 161.772 7.39773C162.047 7.75568 162.217 8.1733 162.284 8.65057H161.11C161.021 8.30256 160.822 7.99432 160.514 7.72585C160.209 7.45407 159.798 7.31818 159.281 7.31818C158.823 7.31818 158.422 7.4375 158.078 7.67614C157.736 7.91146 157.47 8.24455 157.277 8.67543C157.088 9.10298 156.994 9.60511 156.994 10.1818C156.994 10.7718 157.087 11.2855 157.272 11.723C157.461 12.1605 157.726 12.5002 158.068 12.7422C158.412 12.9841 158.817 13.1051 159.281 13.1051C159.586 13.1051 159.862 13.0521 160.111 12.946C160.36 12.84 160.57 12.6875 160.742 12.4886C160.915 12.2898 161.037 12.0511 161.11 11.7727H162.284C162.217 12.2235 162.053 12.6295 161.791 12.9908C161.533 13.3487 161.19 13.6338 160.762 13.8459C160.338 14.0547 159.844 14.1591 159.281 14.1591ZM168.531 10.8778V6.36364H169.705V14H168.531V12.7074H168.452C168.273 13.0952 167.994 13.425 167.617 13.6967C167.239 13.9652 166.761 14.0994 166.185 14.0994C165.707 14.0994 165.283 13.995 164.912 13.7862C164.541 13.5741 164.249 13.2559 164.037 12.8317C163.825 12.4041 163.719 11.8655 163.719 11.2159V6.36364H164.892V11.1364C164.892 11.6932 165.048 12.1373 165.359 12.4688C165.674 12.8002 166.075 12.9659 166.563 12.9659C166.854 12.9659 167.151 12.8913 167.453 12.7422C167.757 12.593 168.013 12.3643 168.218 12.0561C168.427 11.7479 168.531 11.3551 168.531 10.8778ZM171.574 14V6.36364H172.707V7.51705H172.787C172.926 7.1392 173.178 6.83262 173.542 6.5973C173.907 6.36198 174.318 6.24432 174.775 6.24432C174.862 6.24432 174.969 6.24597 175.098 6.24929C175.228 6.2526 175.326 6.25758 175.392 6.2642V7.45739C175.352 7.44744 175.261 7.43253 175.118 7.41264C174.979 7.38944 174.832 7.37784 174.676 7.37784C174.305 7.37784 173.973 7.45573 173.682 7.61151C173.393 7.76397 173.165 7.97609 172.996 8.24787C172.83 8.51634 172.747 8.82292 172.747 9.16761V14H171.574ZM176.503 14V6.36364H177.676V14H176.503ZM177.099 5.09091C176.871 5.09091 176.673 5.01302 176.508 4.85724C176.345 4.70147 176.264 4.5142 176.264 4.29545C176.264 4.0767 176.345 3.88944 176.508 3.73366C176.673 3.57789 176.871 3.5 177.099 3.5C177.328 3.5 177.523 3.57789 177.686 3.73366C177.852 3.88944 177.934 4.0767 177.934 4.29545C177.934 4.5142 177.852 4.70147 177.686 4.85724C177.523 5.01302 177.328 5.09091 177.099 5.09091ZM182.866 6.36364V7.35795H178.909V6.36364H182.866ZM180.062 4.53409H181.235V11.8125C181.235 12.1439 181.283 12.3925 181.379 12.5582C181.479 12.7206 181.605 12.83 181.757 12.8864C181.913 12.9394 182.077 12.9659 182.249 12.9659C182.379 12.9659 182.485 12.9593 182.568 12.946C182.65 12.9295 182.717 12.9162 182.766 12.9062L183.005 13.9602C182.926 13.9901 182.815 14.0199 182.672 14.0497C182.529 14.0829 182.349 14.0994 182.13 14.0994C181.799 14.0994 181.474 14.0282 181.156 13.8857C180.841 13.7431 180.579 13.526 180.37 13.2344C180.165 12.9427 180.062 12.5748 180.062 12.1307V4.53409ZM185.107 16.8636C184.908 16.8636 184.73 16.8471 184.575 16.8139C184.419 16.7841 184.311 16.7543 184.251 16.7244L184.55 15.6903C184.835 15.7633 185.087 15.7898 185.305 15.7699C185.524 15.75 185.718 15.6522 185.887 15.4766C186.059 15.3042 186.217 15.0241 186.359 14.6364L186.578 14.0398L183.754 6.36364H185.027L187.135 12.4489H187.214L189.322 6.36364H190.595L187.354 15.1136C187.208 15.508 187.027 15.8345 186.812 16.093C186.596 16.3549 186.346 16.5488 186.061 16.6747C185.779 16.8007 185.461 16.8636 185.107 16.8636Z" fill="#6799BA"/>
<rect x="207.5" y="8" width="72" height="1" fill="#6799BA"/>
</svg>
