<svg width="32" height="32" viewBox="0 0 32 32" fill="none" xmlns="http://www.w3.org/2000/svg">
<g clip-path="url(#clip0_250_834)">
<path d="M16 0C24.8352 0 32 7.1648 32 16C32 24.8352 24.8352 32 16 32C7.1648 32 0 24.8352 0 16C0 7.1648 7.1648 0 16 0Z" fill="#1DA1F2"/>
<path d="M12.2879 24.1278C19.8335 24.1278 23.9647 17.875 23.9647 12.451C23.9647 12.275 23.9647 12.0958 23.9519 11.9198C24.7551 11.3374 25.4495 10.6206 25.9999 9.79497C25.2511 10.1278 24.4575 10.3454 23.6447 10.4414C24.5023 9.92937 25.1423 9.12297 25.4495 8.17257C24.6431 8.64937 23.7631 8.98857 22.8447 9.16777C21.2895 7.51657 18.6911 7.43657 17.0399 8.98857C15.9743 9.99017 15.5231 11.4846 15.8527 12.9086C12.5535 12.7422 9.47835 11.1838 7.39515 8.62057C6.30715 10.4958 6.86075 12.8926 8.66555 14.099C8.01275 14.0798 7.37275 13.9038 6.80315 13.587C6.80315 13.603 6.80315 13.6222 6.80315 13.6382C6.80315 15.5902 8.17915 17.2734 10.0959 17.6606C9.49115 17.8238 8.85755 17.8494 8.24315 17.731C8.78075 19.4014 10.3199 20.547 12.0767 20.5822C10.6239 21.7246 8.82875 22.3454 6.98235 22.3422C6.65595 22.3422 6.32955 22.323 6.00635 22.2814C7.87515 23.4878 10.0607 24.1278 12.2879 24.1246" fill="white"/>
</g>
<defs>
<clipPath id="clip0_250_834">
<rect width="32" height="32" fill="white"/>
</clipPath>
</defs>
</svg>
