<svg width="158" height="17" viewBox="0 0 158 17" fill="none" xmlns="http://www.w3.org/2000/svg">
<rect y="8" width="72" height="1" fill="#6799BA"/>
<path d="M84.9811 14L82.197 3.81818H83.4498L85.5776 12.1108H85.6771L87.8447 3.81818H89.2367L91.4044 12.1108H91.5038L93.6316 3.81818H94.8845L92.1004 14H90.8276L88.5805 5.88636H88.5009L86.2538 14H84.9811ZM97.1549 9.40625V14H95.9816V3.81818H97.1549V7.55682H97.2543C97.4333 7.16241 97.7018 6.84919 98.0597 6.61719C98.421 6.38187 98.9016 6.2642 99.5015 6.2642C100.022 6.2642 100.478 6.36861 100.869 6.57741C101.26 6.78291 101.563 7.09943 101.778 7.52699C101.997 7.95123 102.107 8.49148 102.107 9.14773V14H100.933V9.22727C100.933 8.62074 100.776 8.15175 100.461 7.82031C100.149 7.48556 99.7169 7.31818 99.1634 7.31818C98.7789 7.31818 98.4342 7.39938 98.1293 7.56179C97.8277 7.72419 97.5891 7.96117 97.4134 8.27273C97.2411 8.58428 97.1549 8.96212 97.1549 9.40625ZM106.22 14.179C105.736 14.179 105.297 14.0878 104.903 13.9055C104.508 13.7199 104.195 13.4531 103.963 13.1051C103.731 12.7538 103.615 12.3295 103.615 11.8324C103.615 11.3949 103.701 11.0402 103.874 10.7685C104.046 10.4934 104.276 10.2779 104.565 10.1222C104.853 9.96638 105.171 9.85038 105.519 9.77415C105.871 9.6946 106.224 9.63163 106.578 9.58523C107.042 9.52557 107.418 9.48082 107.707 9.45099C107.998 9.41785 108.211 9.36316 108.343 9.28693C108.479 9.2107 108.547 9.07812 108.547 8.8892V8.84943C108.547 8.3589 108.413 7.97775 108.144 7.70597C107.879 7.43419 107.476 7.2983 106.936 7.2983C106.376 7.2983 105.937 7.42093 105.619 7.66619C105.3 7.91146 105.077 8.1733 104.948 8.4517L103.834 8.05398C104.033 7.58996 104.298 7.22869 104.629 6.97017C104.964 6.70833 105.329 6.52604 105.723 6.4233C106.121 6.31723 106.512 6.2642 106.896 6.2642C107.142 6.2642 107.423 6.29403 107.742 6.35369C108.063 6.41004 108.373 6.5277 108.671 6.70668C108.973 6.88565 109.223 7.15578 109.422 7.51705C109.621 7.87831 109.72 8.36222 109.72 8.96875V14H108.547V12.9659H108.487C108.408 13.1316 108.275 13.3089 108.09 13.4979C107.904 13.6868 107.657 13.8475 107.349 13.9801C107.041 14.1127 106.664 14.179 106.22 14.179ZM106.399 13.125C106.863 13.125 107.254 13.0339 107.573 12.8516C107.894 12.6693 108.136 12.4339 108.298 12.1456C108.464 11.8572 108.547 11.554 108.547 11.2358V10.1619C108.497 10.2216 108.388 10.2763 108.219 10.326C108.053 10.3724 107.861 10.4138 107.642 10.4503C107.427 10.4834 107.216 10.5133 107.011 10.5398C106.809 10.563 106.644 10.5829 106.519 10.5994C106.214 10.6392 105.929 10.7038 105.663 10.7933C105.402 10.8795 105.189 11.0104 105.027 11.1861C104.868 11.3584 104.788 11.5937 104.788 11.892C104.788 12.2997 104.939 12.608 105.241 12.8168C105.546 13.0223 105.932 13.125 106.399 13.125ZM114.903 6.36364V7.35795H110.945V6.36364H114.903ZM112.099 4.53409H113.272V11.8125C113.272 12.1439 113.32 12.3925 113.416 12.5582C113.516 12.7206 113.642 12.83 113.794 12.8864C113.95 12.9394 114.114 12.9659 114.286 12.9659C114.416 12.9659 114.522 12.9593 114.604 12.946C114.687 12.9295 114.754 12.9162 114.803 12.9062L115.042 13.9602C114.962 13.9901 114.851 14.0199 114.709 14.0497C114.566 14.0829 114.386 14.0994 114.167 14.0994C113.836 14.0994 113.511 14.0282 113.193 13.8857C112.878 13.7431 112.616 13.526 112.407 13.2344C112.202 12.9427 112.099 12.5748 112.099 12.1307V4.53409ZM121.775 14L119.449 6.36364H120.682L122.332 12.2102H122.412L124.042 6.36364H125.295L126.906 12.1903H126.986L128.636 6.36364H129.869L127.542 14H126.389L124.718 8.13352H124.599L122.929 14H121.775ZM134.082 14.1591C133.346 14.1591 132.712 13.9967 132.178 13.6719C131.648 13.3438 131.238 12.8864 130.95 12.2997C130.665 11.7098 130.522 11.0237 130.522 10.2415C130.522 9.45928 130.665 8.76989 130.95 8.1733C131.238 7.57339 131.639 7.10606 132.153 6.77131C132.67 6.43324 133.273 6.2642 133.963 6.2642C134.361 6.2642 134.753 6.33049 135.141 6.46307C135.529 6.59564 135.882 6.81108 136.2 7.10938C136.518 7.40436 136.772 7.79545 136.961 8.28267C137.15 8.76989 137.244 9.36979 137.244 10.0824V10.5795H131.358V9.56534H136.051C136.051 9.13447 135.965 8.75 135.792 8.41193C135.623 8.07386 135.381 7.80705 135.067 7.61151C134.755 7.41596 134.387 7.31818 133.963 7.31818C133.495 7.31818 133.091 7.43419 132.75 7.66619C132.412 7.89489 132.151 8.19318 131.969 8.56108C131.787 8.92898 131.696 9.32339 131.696 9.74432V10.4205C131.696 10.9972 131.795 11.486 131.994 11.8871C132.196 12.2848 132.476 12.5881 132.834 12.7969C133.192 13.0024 133.608 13.1051 134.082 13.1051C134.39 13.1051 134.669 13.062 134.917 12.9759C135.169 12.8864 135.386 12.7538 135.569 12.5781C135.751 12.3991 135.892 12.1771 135.991 11.9119L137.125 12.2301C137.005 12.6146 136.805 12.9527 136.523 13.2443C136.241 13.5327 135.893 13.758 135.479 13.9205C135.065 14.0795 134.599 14.1591 134.082 14.1591ZM145.29 14.1591C144.654 14.1591 144.092 13.9983 143.605 13.6768C143.117 13.352 142.736 12.8946 142.461 12.3047C142.186 11.7114 142.048 11.0104 142.048 10.2017C142.048 9.39962 142.186 8.7036 142.461 8.11364C142.736 7.52367 143.119 7.06794 143.609 6.74645C144.1 6.42495 144.667 6.2642 145.31 6.2642C145.807 6.2642 146.2 6.34706 146.488 6.51278C146.78 6.67519 147.002 6.8608 147.154 7.0696C147.31 7.27509 147.431 7.44413 147.517 7.5767H147.617V3.81818H148.79V14H147.656V12.8267H147.517C147.431 12.9659 147.308 13.1416 147.149 13.3537C146.99 13.5625 146.763 13.7498 146.468 13.9155C146.173 14.0779 145.78 14.1591 145.29 14.1591ZM145.449 13.1051C145.92 13.1051 146.317 12.9825 146.642 12.7372C146.967 12.4886 147.214 12.1456 147.383 11.7081C147.552 11.2673 147.636 10.7585 147.636 10.1818C147.636 9.61174 147.554 9.11293 147.388 8.68537C147.222 8.2545 146.977 7.91974 146.652 7.68111C146.327 7.43916 145.926 7.31818 145.449 7.31818C144.952 7.31818 144.538 7.44579 144.206 7.70099C143.878 7.95289 143.631 8.29593 143.465 8.73011C143.303 9.16098 143.222 9.64489 143.222 10.1818C143.222 10.7254 143.305 11.2192 143.47 11.6634C143.639 12.1042 143.888 12.4555 144.216 12.7173C144.547 12.9759 144.958 13.1051 145.449 13.1051ZM153.924 14.1591C153.235 14.1591 152.63 13.995 152.109 13.6669C151.592 13.3388 151.188 12.8797 150.896 12.2898C150.608 11.6998 150.464 11.0104 150.464 10.2216C150.464 9.42614 150.608 8.73177 150.896 8.13849C151.188 7.54522 151.592 7.08452 152.109 6.75639C152.63 6.42827 153.235 6.2642 153.924 6.2642C154.613 6.2642 155.217 6.42827 155.734 6.75639C156.254 7.08452 156.658 7.54522 156.947 8.13849C157.238 8.73177 157.384 9.42614 157.384 10.2216C157.384 11.0104 157.238 11.6998 156.947 12.2898C156.658 12.8797 156.254 13.3388 155.734 13.6669C155.217 13.995 154.613 14.1591 153.924 14.1591ZM153.924 13.1051C154.448 13.1051 154.878 12.9709 155.217 12.7024C155.555 12.4339 155.805 12.081 155.967 11.6435C156.13 11.206 156.211 10.732 156.211 10.2216C156.211 9.71117 156.13 9.23556 155.967 8.79474C155.805 8.35393 155.555 7.99763 155.217 7.72585C154.878 7.45407 154.448 7.31818 153.924 7.31818C153.4 7.31818 152.969 7.45407 152.631 7.72585C152.293 7.99763 152.043 8.35393 151.881 8.79474C151.718 9.23556 151.637 9.71117 151.637 10.2216C151.637 10.732 151.718 11.206 151.881 11.6435C152.043 12.081 152.293 12.4339 152.631 12.7024C152.969 12.9709 153.4 13.1051 153.924 13.1051Z" fill="#6799BA"/>
</svg>
