<svg width="156" height="17" viewBox="0 0 156 17" fill="none" xmlns="http://www.w3.org/2000/svg">
<rect y="8" width="72" height="1" fill="#6799BA"/>
<path d="M83.3092 14L80.5251 3.81818H81.7779L83.9058 12.1108H84.0052L86.1728 3.81818H87.5649L89.7325 12.1108H89.8319L91.9597 3.81818H93.2126L90.4285 14H89.1558L86.9086 5.88636H86.8291L84.5819 14H83.3092ZM95.483 9.40625V14H94.3097V3.81818H95.483V7.55682H95.5824C95.7614 7.16241 96.0299 6.84919 96.3878 6.61719C96.7491 6.38187 97.2297 6.2642 97.8296 6.2642C98.35 6.2642 98.8057 6.36861 99.1968 6.57741C99.5879 6.78291 99.8912 7.09943 100.107 7.52699C100.325 7.95123 100.435 8.49148 100.435 9.14773V14H99.2614V9.22727C99.2614 8.62074 99.104 8.15175 98.7891 7.82031C98.4776 7.48556 98.045 7.31818 97.4915 7.31818C97.1071 7.31818 96.7624 7.39938 96.4574 7.56179C96.1558 7.72419 95.9172 7.96117 95.7415 8.27273C95.5692 8.58428 95.483 8.96212 95.483 9.40625ZM105.403 14.1591C104.714 14.1591 104.109 13.995 103.589 13.6669C103.072 13.3388 102.667 12.8797 102.376 12.2898C102.087 11.6998 101.943 11.0104 101.943 10.2216C101.943 9.42614 102.087 8.73177 102.376 8.13849C102.667 7.54522 103.072 7.08452 103.589 6.75639C104.109 6.42827 104.714 6.2642 105.403 6.2642C106.093 6.2642 106.696 6.42827 107.213 6.75639C107.733 7.08452 108.138 7.54522 108.426 8.13849C108.718 8.73177 108.864 9.42614 108.864 10.2216C108.864 11.0104 108.718 11.6998 108.426 12.2898C108.138 12.8797 107.733 13.3388 107.213 13.6669C106.696 13.995 106.093 14.1591 105.403 14.1591ZM105.403 13.1051C105.927 13.1051 106.358 12.9709 106.696 12.7024C107.034 12.4339 107.284 12.081 107.447 11.6435C107.609 11.206 107.69 10.732 107.69 10.2216C107.69 9.71117 107.609 9.23556 107.447 8.79474C107.284 8.35393 107.034 7.99763 106.696 7.72585C106.358 7.45407 105.927 7.31818 105.403 7.31818C104.88 7.31818 104.449 7.45407 104.111 7.72585C103.773 7.99763 103.523 8.35393 103.36 8.79474C103.198 9.23556 103.117 9.71117 103.117 10.2216C103.117 10.732 103.198 11.206 103.36 11.6435C103.523 12.081 103.773 12.4339 104.111 12.7024C104.449 12.9709 104.88 13.1051 105.403 13.1051ZM115.762 14L113.436 6.36364H114.669L116.319 12.2102H116.399L118.029 6.36364H119.282L120.893 12.1903H120.973L122.623 6.36364H123.856L121.529 14H120.376L118.706 8.13352H118.586L116.916 14H115.762ZM128.069 14.1591C127.333 14.1591 126.699 13.9967 126.165 13.6719C125.635 13.3438 125.225 12.8864 124.937 12.2997C124.652 11.7098 124.509 11.0237 124.509 10.2415C124.509 9.45928 124.652 8.76989 124.937 8.1733C125.225 7.57339 125.626 7.10606 126.14 6.77131C126.657 6.43324 127.26 6.2642 127.95 6.2642C128.348 6.2642 128.74 6.33049 129.128 6.46307C129.516 6.59564 129.869 6.81108 130.187 7.10938C130.505 7.40436 130.759 7.79545 130.948 8.28267C131.137 8.76989 131.231 9.36979 131.231 10.0824V10.5795H125.345V9.56534H130.038C130.038 9.13447 129.952 8.75 129.779 8.41193C129.61 8.07386 129.368 7.80705 129.054 7.61151C128.742 7.41596 128.374 7.31818 127.95 7.31818C127.483 7.31818 127.078 7.43419 126.737 7.66619C126.399 7.89489 126.139 8.19318 125.956 8.56108C125.774 8.92898 125.683 9.32339 125.683 9.74432V10.4205C125.683 10.9972 125.782 11.486 125.981 11.8871C126.183 12.2848 126.463 12.5881 126.821 12.7969C127.179 13.0024 127.595 13.1051 128.069 13.1051C128.377 13.1051 128.656 13.062 128.904 12.9759C129.156 12.8864 129.373 12.7538 129.556 12.5781C129.738 12.3991 129.879 12.1771 129.978 11.9119L131.112 12.2301C130.992 12.6146 130.792 12.9527 130.51 13.2443C130.228 13.5327 129.88 13.758 129.466 13.9205C129.052 14.0795 128.586 14.1591 128.069 14.1591ZM138.641 14.179C138.157 14.179 137.717 14.0878 137.323 13.9055C136.929 13.7199 136.615 13.4531 136.383 13.1051C136.151 12.7538 136.035 12.3295 136.035 11.8324C136.035 11.3949 136.122 11.0402 136.294 10.7685C136.466 10.4934 136.697 10.2779 136.985 10.1222C137.273 9.96638 137.592 9.85038 137.94 9.77415C138.291 9.6946 138.644 9.63163 138.999 9.58523C139.463 9.52557 139.839 9.48082 140.127 9.45099C140.419 9.41785 140.631 9.36316 140.763 9.28693C140.899 9.2107 140.967 9.07812 140.967 8.8892V8.84943C140.967 8.3589 140.833 7.97775 140.565 7.70597C140.299 7.43419 139.897 7.2983 139.356 7.2983C138.796 7.2983 138.357 7.42093 138.039 7.66619C137.721 7.91146 137.497 8.1733 137.368 8.4517L136.254 8.05398C136.453 7.58996 136.718 7.22869 137.05 6.97017C137.384 6.70833 137.749 6.52604 138.143 6.4233C138.541 6.31723 138.932 6.2642 139.317 6.2642C139.562 6.2642 139.844 6.29403 140.162 6.35369C140.483 6.41004 140.793 6.5277 141.092 6.70668C141.393 6.88565 141.643 7.15578 141.842 7.51705C142.041 7.87831 142.141 8.36222 142.141 8.96875V14H140.967V12.9659H140.908C140.828 13.1316 140.695 13.3089 140.51 13.4979C140.324 13.6868 140.077 13.8475 139.769 13.9801C139.461 14.1127 139.085 14.179 138.641 14.179ZM138.82 13.125C139.284 13.125 139.675 13.0339 139.993 12.8516C140.314 12.6693 140.556 12.4339 140.719 12.1456C140.884 11.8572 140.967 11.554 140.967 11.2358V10.1619C140.918 10.2216 140.808 10.2763 140.639 10.326C140.473 10.3724 140.281 10.4138 140.062 10.4503C139.847 10.4834 139.637 10.5133 139.431 10.5398C139.229 10.563 139.065 10.5829 138.939 10.5994C138.634 10.6392 138.349 10.7038 138.084 10.7933C137.822 10.8795 137.61 11.0104 137.447 11.1861C137.288 11.3584 137.209 11.5937 137.209 11.892C137.209 12.2997 137.36 12.608 137.661 12.8168C137.966 13.0223 138.352 13.125 138.82 13.125ZM144.002 14V6.36364H145.136V7.51705H145.215C145.354 7.1392 145.606 6.83262 145.971 6.5973C146.335 6.36198 146.746 6.24432 147.204 6.24432C147.29 6.24432 147.398 6.24597 147.527 6.24929C147.656 6.2526 147.754 6.25758 147.82 6.2642V7.45739C147.78 7.44744 147.689 7.43253 147.547 7.41264C147.408 7.38944 147.26 7.37784 147.104 7.37784C146.733 7.37784 146.402 7.45573 146.11 7.61151C145.822 7.76397 145.593 7.97609 145.424 8.24787C145.258 8.51634 145.175 8.82292 145.175 9.16761V14H144.002ZM151.9 14.1591C151.165 14.1591 150.53 13.9967 149.996 13.6719C149.466 13.3438 149.057 12.8864 148.768 12.2997C148.483 11.7098 148.341 11.0237 148.341 10.2415C148.341 9.45928 148.483 8.76989 148.768 8.1733C149.057 7.57339 149.458 7.10606 149.971 6.77131C150.488 6.43324 151.092 6.2642 151.781 6.2642C152.179 6.2642 152.572 6.33049 152.959 6.46307C153.347 6.59564 153.7 6.81108 154.018 7.10938C154.336 7.40436 154.59 7.79545 154.779 8.28267C154.968 8.76989 155.062 9.36979 155.062 10.0824V10.5795H149.176V9.56534H153.869C153.869 9.13447 153.783 8.75 153.611 8.41193C153.442 8.07386 153.2 7.80705 152.885 7.61151C152.573 7.41596 152.205 7.31818 151.781 7.31818C151.314 7.31818 150.909 7.43419 150.568 7.66619C150.23 7.89489 149.97 8.19318 149.787 8.56108C149.605 8.92898 149.514 9.32339 149.514 9.74432V10.4205C149.514 10.9972 149.613 11.486 149.812 11.8871C150.014 12.2848 150.295 12.5881 150.652 12.7969C151.01 13.0024 151.426 13.1051 151.9 13.1051C152.209 13.1051 152.487 13.062 152.736 12.9759C152.987 12.8864 153.205 12.7538 153.387 12.5781C153.569 12.3991 153.71 12.1771 153.809 11.9119L154.943 12.2301C154.824 12.6146 154.623 12.9527 154.341 13.2443C154.06 13.5327 153.712 13.758 153.297 13.9205C152.883 14.0795 152.417 14.1591 151.9 14.1591Z" fill="#6799BA"/>
</svg>
