<svg width="156" height="17" viewBox="0 0 156 17" fill="none" xmlns="http://www.w3.org/2000/svg">
<rect y="8" width="72" height="1" fill="#6799BA"/>
<path d="M83.0824 14L80.2983 3.81818H81.5511L83.679 12.1108H83.7784L85.946 3.81818H87.3381L89.5057 12.1108H89.6051L91.733 3.81818H92.9858L90.2017 14H88.929L86.6818 5.88636H86.6023L84.3551 14H83.0824ZM95.2562 9.40625V14H94.0829V3.81818H95.2562V7.55682H95.3557C95.5346 7.16241 95.8031 6.84919 96.1611 6.61719C96.5223 6.38187 97.0029 6.2642 97.6028 6.2642C98.1232 6.2642 98.5789 6.36861 98.97 6.57741C99.3611 6.78291 99.6644 7.09943 99.8798 7.52699C100.099 7.95123 100.208 8.49148 100.208 9.14773V14H99.0346V9.22727C99.0346 8.62074 98.8772 8.15175 98.5623 7.82031C98.2508 7.48556 97.8182 7.31818 97.2647 7.31818C96.8803 7.31818 96.5356 7.39938 96.2307 7.56179C95.929 7.72419 95.6904 7.96117 95.5147 8.27273C95.3424 8.58428 95.2562 8.96212 95.2562 9.40625ZM102.557 16.8636C102.358 16.8636 102.18 16.8471 102.025 16.8139C101.869 16.7841 101.761 16.7543 101.702 16.7244L102 15.6903C102.285 15.7633 102.537 15.7898 102.756 15.7699C102.974 15.75 103.168 15.6522 103.337 15.4766C103.51 15.3042 103.667 15.0241 103.809 14.6364L104.028 14.0398L101.204 6.36364H102.477L104.585 12.4489H104.665L106.773 6.36364H108.045L104.804 15.1136C104.658 15.508 104.477 15.8345 104.262 16.093C104.046 16.3549 103.796 16.5488 103.511 16.6747C103.229 16.8007 102.911 16.8636 102.557 16.8636ZM117.784 10.8778V6.36364H118.957V14H117.784V12.7074H117.704C117.525 13.0952 117.247 13.425 116.869 13.6967C116.491 13.9652 116.014 14.0994 115.437 14.0994C114.96 14.0994 114.536 13.995 114.165 13.7862C113.793 13.5741 113.502 13.2559 113.29 12.8317C113.078 12.4041 112.971 11.8655 112.971 11.2159V6.36364H114.145V11.1364C114.145 11.6932 114.301 12.1373 114.612 12.4688C114.927 12.8002 115.328 12.9659 115.815 12.9659C116.107 12.9659 116.403 12.8913 116.705 12.7422C117.01 12.593 117.265 12.3643 117.471 12.0561C117.68 11.7479 117.784 11.3551 117.784 10.8778ZM126.235 8.07386L125.181 8.37216C125.115 8.1965 125.017 8.0258 124.888 7.86009C124.762 7.69105 124.59 7.55185 124.371 7.44247C124.152 7.3331 123.872 7.27841 123.531 7.27841C123.063 7.27841 122.674 7.38613 122.362 7.60156C122.054 7.81368 121.9 8.08381 121.9 8.41193C121.9 8.7036 122.006 8.93395 122.218 9.10298C122.43 9.27202 122.762 9.41288 123.213 9.52557L124.346 9.80398C125.029 9.9697 125.538 10.2232 125.872 10.5646C126.207 10.9027 126.375 11.3385 126.375 11.8722C126.375 12.3097 126.249 12.7008 125.997 13.0455C125.748 13.3902 125.4 13.6619 124.953 13.8608C124.505 14.0597 123.985 14.1591 123.392 14.1591C122.613 14.1591 121.968 13.9901 121.458 13.652C120.947 13.3139 120.624 12.8201 120.488 12.1705L121.602 11.892C121.708 12.303 121.908 12.6113 122.203 12.8168C122.502 13.0223 122.891 13.125 123.372 13.125C123.919 13.125 124.353 13.009 124.674 12.777C124.999 12.5417 125.161 12.2599 125.161 11.9318C125.161 11.6667 125.069 11.4446 124.883 11.2656C124.697 11.0833 124.412 10.9474 124.028 10.858L122.755 10.5597C122.056 10.3939 121.542 10.1371 121.214 9.78906C120.889 9.43774 120.727 8.99858 120.727 8.47159C120.727 8.04072 120.848 7.65956 121.09 7.32812C121.335 6.99669 121.668 6.73651 122.089 6.54758C122.513 6.35866 122.994 6.2642 123.531 6.2642C124.286 6.2642 124.88 6.42992 125.311 6.76136C125.745 7.0928 126.053 7.5303 126.235 8.07386ZM129.392 11.1364V11.0767C129.399 10.4437 129.465 9.93987 129.591 9.56534C129.717 9.19081 129.896 8.88755 130.128 8.65554C130.36 8.42353 130.638 8.20975 130.963 8.0142C131.158 7.89489 131.334 7.75402 131.49 7.59162C131.646 7.4259 131.768 7.23532 131.858 7.01989C131.951 6.80445 131.997 6.56581 131.997 6.30398C131.997 5.97917 131.921 5.69744 131.768 5.45881C131.616 5.22017 131.412 5.03622 131.157 4.90696C130.902 4.7777 130.618 4.71307 130.307 4.71307C130.035 4.71307 129.773 4.76941 129.521 4.8821C129.269 4.99479 129.059 5.17211 128.89 5.41406C128.721 5.65601 128.623 5.97254 128.596 6.36364H127.344C127.37 5.80019 127.516 5.31794 127.781 4.9169C128.05 4.51586 128.403 4.20928 128.84 3.99716C129.281 3.78504 129.77 3.67898 130.307 3.67898C130.89 3.67898 131.397 3.79498 131.828 4.02699C132.262 4.259 132.597 4.57718 132.832 4.98153C133.071 5.38589 133.19 5.84659 133.19 6.36364C133.19 6.72822 133.134 7.058 133.021 7.35298C132.912 7.64796 132.753 7.91146 132.544 8.14347C132.338 8.37547 132.09 8.58097 131.798 8.75994C131.506 8.94223 131.273 9.13447 131.097 9.33665C130.922 9.53551 130.794 9.77249 130.714 10.0476C130.635 10.3227 130.592 10.6657 130.585 11.0767V11.1364H129.392ZM130.028 14.0795C129.783 14.0795 129.573 13.9917 129.397 13.8161C129.221 13.6404 129.133 13.4299 129.133 13.1847C129.133 12.9394 129.221 12.7289 129.397 12.5533C129.573 12.3776 129.783 12.2898 130.028 12.2898C130.274 12.2898 130.484 12.3776 130.66 12.5533C130.835 12.7289 130.923 12.9394 130.923 13.1847C130.923 13.3471 130.882 13.4962 130.799 13.6321C130.719 13.768 130.612 13.8774 130.476 13.9602C130.343 14.0398 130.194 14.0795 130.028 14.0795Z" fill="#6799BA"/>
</svg>
