<svg width="32" height="32" viewBox="0 0 32 32" fill="none" xmlns="http://www.w3.org/2000/svg">
<g clip-path="url(#clip0_250_846)">
<path d="M16 32C7.1648 32 0 24.8352 0 16C0 7.1648 7.1648 0 16 0C24.8352 0 32 7.1648 32 16C32 24.8352 24.8352 32 16 32Z" fill="#FF0000"/>
<path d="M26.1824 10.8509C25.9392 9.92932 25.2192 9.20612 24.304 8.95972C22.6464 8.51172 16.0032 8.51172 16.0032 8.51172C16.0032 8.51172 9.35678 8.51172 7.70238 8.95972C6.78718 9.20612 6.06718 9.92932 5.82398 10.8509C5.37598 12.5181 5.37598 15.9997 5.37598 15.9997C5.37598 15.9997 5.37598 19.4813 5.82078 21.1485C6.06398 22.0701 6.78398 22.7933 7.69918 23.0397C9.35678 23.4877 16 23.4877 16 23.4877C16 23.4877 22.6464 23.4877 24.3008 23.0397C25.216 22.7933 25.936 22.0701 26.1792 21.1485C26.624 19.4813 26.624 15.9997 26.624 15.9997C26.624 15.9997 26.624 12.5181 26.1824 10.8509ZM13.8272 19.1581V12.8413L19.3792 15.9997L13.8272 19.1581Z" fill="white"/>
</g>
<defs>
<clipPath id="clip0_250_846">
<rect width="32" height="32" fill="white"/>
</clipPath>
</defs>
</svg>
